<svg id="Layer_1" data-name="Layer 1" xmlns="http://www.w3.org/2000/svg" viewBox="0 0 300 300"><defs><style>.cls-1{fill:#fff;}</style></defs><path class="cls-1" d="M272.92,189.77a198.83,198.83,0,0,1-.06,30.87c-.16,10.28.84,20.57.69,30.86V252c-3.49,3.82-8.74,5.35-13.76,5.4-6.18.3-6.31.14-.12-1,4.48-.75,8.89-2.19,12.05-5.57l-.31.75c-.15-10.29.85-20.58.78-30.87-.14-5.14-.64-10.29-.45-15.44s.36-10.29,1-15.43Z"/><path class="cls-1" d="M272.92,60.05c1.13,13.9.81,27.8.22,41.71-.15,9.26.55,18.53.62,27.79.28,13.92.09,27.8-.84,41.71h-.2c-.93-13.89-1.12-27.79-.84-41.7.07-9.27.77-18.54.62-27.81s-.82-18.53-.45-27.8c.11-4.64.31-9.27.67-13.9Z"/><path class="cls-1" d="M210.81,7.39a290.32,290.32,0,0,1,30.51-.89c5.09.15,10.17.41,15.26.31,3.85.19,7.82-.84,11.57.31a10,10,0,0,1,3.65,2.11l.06.15c3.49,7.94,3.42,17,2.5,25.44-.42,4.23-1,8.41-1.37,12.6A64,64,0,0,0,272.92,60l-.2,0c-2.06-8.3-1.07-17-.42-25.44a117.22,117.22,0,0,0,.48-12.54A38,38,0,0,0,270.49,10l.16.24c-3.35-3.67-9.13-2.54-14.07-2.77-5.08,0-10.17.32-15.25.56s-10.16.25-15.25.19-10.17-.23-15.26-.58v-.2Z"/><path class="cls-1" d="M113.73,108.33c-.48-16.67-.68-33.34,0-50,.34-7.4.73-17.71.8-25,.17-8.56.09-17.13.31-25.69a300.39,300.39,0,0,1,39.09-1.89c6.4.09,12.79.34,19.18.6s12.77.64,19.15,1v.2c-12.78.35-25.57.11-38.34.21s-25.5.27-38.21,1.35l.72-.76c-.45,8.31-1,16.63-1.23,25-.53,16.4.34,33.6-.24,50-.2,8.33-.49,16.66-1,25Z"/><path class="cls-1" d="M114.13,154.48c-1.17-8-.88-16-.33-24.06,0-8-1-16-.85-24.06a154.15,154.15,0,0,1,.89-16h.2a159.92,159.92,0,0,1,.95,24.06c0,5.34-.73,10.7-.54,16s.87,10.68.52,16c-.11,2.67-.27,5.35-.64,8Z"/><path class="cls-1" d="M114.1,182h0Z"/><path class="cls-1" d="M114,181.91h0Z"/><path class="cls-1" d="M162.34,263c-.45.48-1,.79-1.5.5-.21-.17-.39-.52-.61-.62a.77.77,0,0,0-.73.11,2.1,2.1,0,0,1-1.47.29,2.19,2.19,0,0,1-1.23-1.18l0-.2a2.18,2.18,0,0,1,1.54-.73,2.07,2.07,0,0,1,1.3.74.75.75,0,0,0,.65.33c.24,0,.53-.3.78-.39.6-.11,1,.35,1.27,1l0,.2Z"/><path class="cls-1" d="M113.9,93.93c-.12-26.8-1.65-53.6-.41-80.39,1.21-8.57,11.35-6.2,17.41-6,2.84.42,5.54,2.36,8.31,2.52,16.7,1.28,33.39,5.44,49.65,8.11a505.29,505.29,0,0,1,60,8c2.51,1.35,7.08,2.4,6.8,6l0,1-.07,2.06c-1.81,58.91-.27,126.56-2.24,185.43-.46,16.48-1.29,33-2.29,49.42l-.12,2.05a2.85,2.85,0,0,1-.37,1.33c-1.11,1.78-3.39,2-5.26,2.17-2.41.18-7-.45-8.19-1.24-19.14-1.6-37.6-7.05-56.68-8.93l0-.2c19.06,1.34,37.73,6.4,56.77,7.69a20.28,20.28,0,0,0,8,1.16c1.56-.1,4-.39,4.14-2.07l.1-2.06c1.95-38.4,2.54-76.84,3-115.28.4-39.73,1-79.76,2.45-119.49l.07-2.06,0-1c.33-3.2-4.36-4.21-6.26-5.38a419,419,0,0,0-44.92-6.27q-7.55-.64-15.11-1.09c-8.32-1.21-16.59-2.77-24.85-4.21a245.62,245.62,0,0,0-24.76-3.36c-3.18-.17-5.54-2-8.51-2.58-3.88-.1-8.15-1.06-11.84,0a5.31,5.31,0,0,0-3.68,4.37c-.35,6.67-.53,13.35-.62,20-.36,11.54,0,28.43-.11,40.17,0,6.69-.08,13.39-.28,20.09Z"/><path class="cls-1" d="M113.67,154.43a3.56,3.56,0,0,1-.77-2.81,11.24,11.24,0,0,0,.49-1.41,2.56,2.56,0,0,0-.24-1.4,7,7,0,0,1-.55-2.81,5.68,5.68,0,0,1,.93-2.83h.2a5.7,5.7,0,0,1,1,2.8,7,7,0,0,1-.48,2.82,2.7,2.7,0,0,0-.21,1.41,11.55,11.55,0,0,0,.53,1.41,2.93,2.93,0,0,1,0,1.41,3.6,3.6,0,0,1-.66,1.41Z"/><path class="cls-1" d="M204.59,63.22c4.41-.2,8.6.92,12.74,2.21,2.81.64,5.76.38,8.61.74A46.15,46.15,0,0,1,238.61,69l0,.2a48.1,48.1,0,0,1-8.67-.34c-4.31-.46-8.41-2.07-12.68-2.74-2.87-.2-5.8-.17-8.58-1.11a22.26,22.26,0,0,1-4.09-1.54l0-.2Z"/><path class="cls-1" d="M131.74,51c6.75-.47,13.37,1,19.79,2.85,6.53,1.32,13.22,1.76,19.74,3.12,4.34.87,8.66,1.77,13,2.88l0,.2a74.15,74.15,0,0,1-19.9-2.35c-4.34-.91-8.54-2.52-12.94-3.22A126.52,126.52,0,0,1,135,51.94c-1.09-.22-2.17-.47-3.26-.79l0-.2Z"/><path class="cls-1" d="M162.61,73c-5,.94-10-.07-14.8-1.52-4.87-.93-9.9-1-14.73-2.24a78.51,78.51,0,0,1-9.53-2.82l0-.2a52.78,52.78,0,0,1,14.75,2.08c3.21.75,6.3,2.12,9.58,2.54a76.59,76.59,0,0,1,12.26,1.39,24.53,24.53,0,0,1,2.44.57V73Z"/><path class="cls-1" d="M247.07,85.11A166.34,166.34,0,0,1,223,82c-8.05-.95-16.19-.83-24.22-2.06A99.6,99.6,0,0,1,183,76.41l0-.19c8.11.62,16.09,1.46,24.1,2.68,5.35.68,10.63,2,16,2.42s10.82.44,16.13,1.6a63.6,63.6,0,0,1,7.88,2l0,.19Z"/><path class="cls-1" d="M203.63,98.19c4.19-.5,8.24.39,12.21,1.57,4.06.64,8.25.29,12.29,1.23a32.88,32.88,0,0,1,7.85,2.65l0,.2a55.94,55.94,0,0,1-12.2-1.58c-2.67-.51-5.26-1.63-8-1.87s-5.5,0-8.18-.72a21.49,21.49,0,0,1-4-1.28l0-.2Z"/><path class="cls-1" d="M129.12,85.64c6.95.26,13.67,1.81,20.35,3.54,4.5.92,9.15.94,13.69,1.6a117.3,117.3,0,0,1,20.29,4l0,.2a116.61,116.61,0,0,1-13.75-1.17c-6.85-.88-13.49-2.9-20.3-4-4.57-.49-9.18-.76-13.65-2a56,56,0,0,1-6.63-2l0-.2Z"/><path class="cls-1" d="M148.06,108.5a3,3,0,0,1-2.67.3,10.77,10.77,0,0,0-1.19-.72,2.37,2.37,0,0,0-1.32,0,5.9,5.9,0,0,1-2.64.09,4.93,4.93,0,0,1-2.39-1.39l0-.19a5.06,5.06,0,0,1,2.71-.53,6.21,6.21,0,0,1,2.47.94,2.31,2.31,0,0,0,1.24.44,9.43,9.43,0,0,0,1.36-.29,2.56,2.56,0,0,1,1.27.27,3.18,3.18,0,0,1,1.17.89l0,.19Z"/><path class="cls-1" d="M225.3,121.52c-7.34.4-14.55-1.12-21.58-3-7.13-1.39-14.41-1.91-21.52-3.4-4.74-1-9.45-2-14.17-3.21l0-.2a94.54,94.54,0,0,1,21.65,2.79c4.74,1,9.35,2.65,14.14,3.39a152.83,152.83,0,0,1,17.93,2.64c1.19.24,2.37.5,3.55.83l0,.2Z"/><path class="cls-1" d="M170.34,131.73c-5,1-10,0-14.8-1.47-4.87-.93-9.89-1-14.72-2.25a76.19,76.19,0,0,1-9.51-2.86l0-.2a53.5,53.5,0,0,1,14.74,2.13c3.21.75,6.29,2.12,9.57,2.54A77.58,77.58,0,0,1,167.9,131a21.39,21.39,0,0,1,2.44.55v.2Z"/><path class="cls-1" d="M229.94,141.77a70.22,70.22,0,0,1-14.72-2.8c-3.28-.64-6.68-.33-10-.68a46.09,46.09,0,0,1-14.74-3.17l0-.19c3.39.07,6.69.36,10,.72,5,.5,9.84,2,14.8,2.68,3.34.21,6.75.25,10,1.35a26.48,26.48,0,0,1,4.71,1.89l-.06.2Z"/><path class="cls-1" d="M47.31,189.56c.74-3.94,3.14-7.15,5.92-9.88,1.68-2,2.8-4.36,4.53-6.29a24.27,24.27,0,0,1,9.23-7l.12.16c-3.68,4.52-8,8.08-12.18,12.05-2.17,2.36-3,5.6-5,8.06a24.72,24.72,0,0,1-2.42,3l-.18-.09Z"/><path class="cls-1" d="M72.12,276.24c-9.74-4.37-17.59-12.23-22.76-21.49a98,98,0,0,1-5-9.29,54,54,0,0,1-4.72-20.64,80.21,80.21,0,0,1,2.43-21l.2,0a191.8,191.8,0,0,0-.49,20.86c.51,10.28,2.44,20.92,8.17,29.66a58.13,58.13,0,0,0,6.68,8c2.38,2.51,4.84,4.93,7.46,7.2s5.35,4.41,8.18,6.49l-.1.17Z"/><path class="cls-1" d="M137.47,277.82A37.8,37.8,0,0,1,124,284c-3.67.71-7.39.93-11.07,1.5-11,1.75-22.84.46-32.58-5.21l.08-.18c10.63,2.87,21.43,4.92,32.44,4.71,6.13-.39,11.8-3,17.62-4.69,2.3-.83,4.57-1.71,6.91-2.51l.09.17Z"/><path class="cls-1" d="M144,165.22a59,59,0,0,1,20.52,21.53,73.52,73.52,0,0,1,4.74,11.65c3.41,11.08,5.13,22.86,3,34.38-.3,1.25-1,4.47-1.32,5.7s-1.45,4.28-1.87,5.55a62.09,62.09,0,0,1-21.48,27l-.12-.16c15.15-13.68,24.82-32.91,24.4-53.52a52.8,52.8,0,0,0-4.14-20.44c-.75-1.57-1.56-3.66-2.43-5.17l-1.85-3.32a82.42,82.42,0,0,0-19.59-23l.11-.17Z"/><path class="cls-1" d="M67,166.37a42.56,42.56,0,0,1,23.76-11.12c10.28-1.91,20.9-3,31.21-.54a49.71,49.71,0,0,1,17.6,7.88l-.1.17a90.52,90.52,0,0,0-32-7.93c-6.26-.44-12.86-.17-18.82,1.89A141.22,141.22,0,0,0,75.46,162c-2.85,1.39-5.58,3-8.35,4.56l-.12-.16Z"/><path class="cls-1" d="M79.67,170.08a5.54,5.54,0,0,1,3.09-2.34c.64-.14,1.35-.1,2-.29,1.79-.68,3.22-2.22,5.17-2.61a8.45,8.45,0,0,1,3.94,0l0,.2a11,11,0,0,1-5.19,2.31c-1.18.33-2.61.1-3.72.72s-1.87,1.72-3.22,2a6.55,6.55,0,0,1-2,.25l-.09-.18Z"/><path class="cls-1" d="M52.35,233.87a38.45,38.45,0,0,1-2.68-16.71,123.71,123.71,0,0,1,2.39-12.51c2.6-12.47,10-24.34,21.28-30.61l.12.16a78.06,78.06,0,0,0-17.55,22.93,43.87,43.87,0,0,0-4.14,11.77c-.72,5.42-.4,11.16-.17,16.6.25,2.78.62,5.52.94,8.31l-.19.06Z"/><path class="cls-1" d="M107.19,275.43a36.34,36.34,0,0,1-15.91-1.31c-3.78-1.35-7.31-3.27-10.94-4.95-10.91-5-20.35-14.07-24.28-25.57l.17-.09a87,87,0,0,0,18,20.49,42.17,42.17,0,0,0,9.92,6.32c4.82,1.82,10.16,2.78,15.18,3.82,2.6.41,5.19.72,7.82,1.09v.2Z"/><path class="cls-1" d="M93.83,164.82c39.71-10.36,75,26.53,67.79,65.83-3.52,22.25-23.68,41.58-45.64,43.67,21.69-4.85,39.54-22.28,43.79-44,2.58-12.49,1.16-26-4.87-37.36-7.93-14.59-23.15-24.21-39.14-27.55a56.18,56.18,0,0,0-10.89-1.17,63.52,63.52,0,0,0-11,.82l0-.2Z"/><path class="cls-1" d="M106,219.46c-1.14-4.93-.81-9.93-.22-14.89,0-5-.94-9.92-.75-14.9a61.84,61.84,0,0,1,1-9.93h.2a62.11,62.11,0,0,1,.85,14.9c-.07,3.3-.79,6.61-.63,9.93s.83,6.6.45,9.93a32.46,32.46,0,0,1-.67,5Z"/><path class="cls-1" d="M106.12,219.37c3.22,0,6,1.44,8.65,3.09,2.84,1.15,6,1.32,8.84,2.61a23.76,23.76,0,0,1,5.37,3.1l-.07.19a24.06,24.06,0,0,1-8.88-2.51c-1.88-.8-3.52-2.2-5.49-2.79-3.06-.54-6.09-1.36-8.5-3.51l.08-.18Z"/></svg>