<svg id="Layer_1" data-name="Layer 1" xmlns="http://www.w3.org/2000/svg" viewBox="0 0 64.61 64.61"><defs><style>.cls-1{fill:#fff;}.cls-2{fill:none;}</style></defs><path class="cls-1" d="M13.79,20.31,7.29,6.79c2.25,0,4.17,0,6.09.08.42,0,.93.61,1.17,1,1,1.87,1.85,3.79,2.78,5.71,10-7.58,19.83-7.52,29.88-.28.87-1.69,1.67-3.46,2.69-5.1A2.82,2.82,0,0,1,51.79,7.1c1.71-.16,3.45,0,5.53,0-2.29,4.65-4.43,9-6.64,13.45,2,.55,2.19,2,1.9,3.66-.06.31-.27.68-.17.93C53.49,28,51.28,30,50.46,32.26A4.08,4.08,0,0,1,46,34.72c-1.94-.19-2.8.68-3.6,2.35C39.07,44,35.6,50.76,32.08,57.82a15.06,15.06,0,0,1-.85-1.39C28,49.72,24.73,43,21.55,36.27a2.53,2.53,0,0,0-2.64-1.69c-3,0-4.67-1.53-5.38-4.37a3.54,3.54,0,0,0-.78-1.42C11.21,27.13,11.82,21.52,13.79,20.31Zm2,.23,33.4.19c-.33-6.2-8.38-11.59-16.86-11.43C23.55,9.47,15.9,14.62,15.79,20.54ZM49.9,29.26H47.8c-5.12,0-10.25.22-15.34-.19-3.57-.28-4.79,2.21-7.21,4.29,7.51,0,14.42.14,21.33.09C48.58,33.43,49.85,31.7,49.9,29.26ZM13.33,23.91l37.94.22v-2l-37.84-.21ZM36.56,34.84l-8.84-.05,4.38,9Zm14.52-7c.58-1.61-.1-2-1.43-2-5.18,0-10.37-.1-15.55,0-1,0-1.91.83-2.86,1.27l.23.61ZM31,25.74,20.1,25.67l5.38,5.88,4.65-4.84C30.38,26.45,30.62,26.17,31,25.74Zm-16.08,3.5c-.07,4.36,3.62,4.55,9.76,3.89C22.63,29.12,19.14,28.43,14.93,29.24Zm4.47-1.55c-1.52-1.87-4.52-2.63-5.95-1.76v1.72Z"/><path class="cls-2" d="M15.79,20.54C15.9,14.62,23.55,9.47,32.33,9.3c8.48-.16,16.53,5.23,16.86,11.43Z"/><path class="cls-2" d="M49.9,29.26c0,2.44-1.32,4.17-3.32,4.18-6.91.05-13.82,0-21.33-.09,2.42-2.08,3.64-4.57,7.21-4.29,5.09.41,10.22.16,15.34.19Z"/><path class="cls-2" d="M13.33,23.91l.11-2,37.84.21v2Z"/><path class="cls-1" d="M36.56,34.84l-4.46,9-4.38-9Z"/><path class="cls-2" d="M51.08,27.82l-19.61-.11-.23-.61c.95-.44,1.9-1.25,2.86-1.27,5.18-.1,10.37,0,15.55,0C51,25.83,51.66,26.21,51.08,27.82Z"/><path class="cls-2" d="M31,25.74c-.39.43-.63.71-.88,1l-4.65,4.84L20.1,25.67Z"/><path class="cls-2" d="M14.93,29.24c4.21-.81,7.7-.12,9.76,3.89C18.55,33.79,14.86,33.6,14.93,29.24Z"/><path class="cls-2" d="M19.4,27.69l-6,0V25.93C14.88,25.06,17.88,25.82,19.4,27.69Z"/></svg>