<svg xmlns="http://www.w3.org/2000/svg" viewBox="0 0 229.35 271.41"><defs><style>.cls-1{fill:#fff;}</style></defs><g id="Layer_1" data-name="Layer 1"><path class="cls-1" d="M50.34,66.32c-.18,5.17,3.44,9.5,7,12.79,2,1.56,4.14,3.33,4.81,5.92l1.54,7.47a28.4,28.4,0,0,1-1.38,15.21c-1.85,4.69-4.82,8.87-5.82,13.87a41.62,41.62,0,0,0,3.79,28.81c7.24,13.18,22.83,20.06,37.5,19.63,19.6-.3,39.74-15.48,40.51-36a52.17,52.17,0,0,0-1.69-14.86c-1-4.29-2.5-8.56-2.95-13-.15-1.65.39-4.14-1.22-5.06-.88-.56-3.33,0-3.16-1.69a6.81,6.81,0,0,1,.74-1.79c.56-1.11.83-2.47,1.82-3.31a2.9,2.9,0,0,1,1.76-.64,2.87,2.87,0,0,0-1.71.7c-.95.88-1.14,2.21-1.66,3.35s-1.33,2.49.48,2.63a6.35,6.35,0,0,1,1.91.38,2.32,2.32,0,0,1,1.26,1.57c.49,1.88.15,3.78.66,5.65.77,3.71,2,7.28,3,11a52,52,0,0,1,2,15.15c-.35,21.45-21.28,37.43-41.71,37.84-25.43.64-45.3-17-44-43.09A37.68,37.68,0,0,1,57.78,114c3.88-6.39,6.41-13.78,5-21.32l-1.3-7.42c-.58-2.5-2.56-4.12-4.44-5.74-3.57-3.43-7.08-8-6.69-13.18Z" transform="translate(-43.73 -12.51)"/><path class="cls-1" d="M109.29,174.54a6,6,0,0,1-5.93-.86,4.28,4.28,0,0,1,5.93.86Z" transform="translate(-43.73 -12.51)"/><path class="cls-1" d="M75.52,176.83c-13.73,8.48-15,21.32-.24,29.49a49.65,49.65,0,0,0,12.35,4.44,34.87,34.87,0,0,1-13.06-3c-16.24-7.6-15.38-24.22,1-30.88Z" transform="translate(-43.73 -12.51)"/><path class="cls-1" d="M144.77,53.36c2-10.09,1.55-22.65-7.6-29A34.72,34.72,0,0,0,119,19.17l.26-.13c-1.18,1.12-.29,3.06-1.08,4.39.46-1.18-.24-2.39,0-3.62.1-.42.31-1.24.78-1.35a30.49,30.49,0,0,1,19.34,4.26c9.9,6.52,10.5,20.54,6.52,30.64Z" transform="translate(-43.73 -12.51)"/><path class="cls-1" d="M77.7,87.17c-4.56,2.91-9.89-.09-14.17-2l.9-.67a8.22,8.22,0,0,0,.37,1.65,3.44,3.44,0,0,1,2.33,1.52,14.35,14.35,0,0,1,1,2.26c1.91,2.31,6.06.3,8,3a4.58,4.58,0,0,1,.72,2.26c0,.17,0,.17.24.3,1.73.82,4,.9,5.74,1.87,0,0,.09,0,0,0s.14,0,.27-.06a5.28,5.28,0,0,0,.6-.27,6.06,6.06,0,0,1,6.26.76c.51.33.73.41.94.19a15.83,15.83,0,0,1,1-1.31,2.53,2.53,0,0,1,2.23-.46c4.41.19,9.42.22,11.88,4.8l-1.15.12a5,5,0,0,1,2.82-2.89c3.89-1.06,6.78-2.42,7.62-6.74a7.6,7.6,0,0,1-3.8,6.2c-2,1.21-4.76,1.31-5.43,3.87a.63.63,0,0,1-1.15.12c-2.39-3.91-6.79-3.53-10.94-3.67-.36,0-.67-.12-.81,0a11.61,11.61,0,0,1-.89,1.29,2.31,2.31,0,0,1-2.48.55c-1.3-.63-2.52-1.68-4-1.41-1.31.14-2.39,1.35-3.79.7a20.69,20.69,0,0,0-4.23-1.36c-.87-.27-2.12-.6-2.63-1.63-.37-.65-.19-1.63-.6-2.18a3,3,0,0,0-2.17-.87c-1.61-.19-3.65-.32-5-1.57-1.24-1-.78-3.17-2.28-3.83-.32-.14-.31-.1-.77-.27a1.57,1.57,0,0,1-.82-1.07,12.05,12.05,0,0,1-.25-1.7.64.64,0,0,1,.55-.73c2.42.85,4.55,2.51,6.93,3.3a9.15,9.15,0,0,0,7.06-.11Z" transform="translate(-43.73 -12.51)"/><path class="cls-1" d="M132.9,101.47c-8.77,10.68-21.46,14.92-35,12.36l-2.55-.25c3.37-.55,6.82-.25,10.19-.6a43.68,43.68,0,0,0,18.92-5.82,99.49,99.49,0,0,0,8.42-5.69Z" transform="translate(-43.73 -12.51)"/><path class="cls-1" d="M71.89,25.13a4.48,4.48,0,0,0-2.11-3.82,11.81,11.81,0,0,0-12.63-.93,17.75,17.75,0,0,0-6.85,5.69c-1,1.31-.19,2.31.73,3.42a4,4,0,0,1,1.27,2.22c0,.49-.13.8,0,1.12a1.07,1.07,0,0,0,.91.54A1.23,1.23,0,0,1,52.07,33c-.31-.38-.23-.92-.32-1.2-.17-.67-.79-1.07-1.42-1.61-.92-.8-2.19-2.1-1.87-3.57,2.4-6.58,11-11.21,17.77-8.77,2.89,1.16,6.58,3.78,5.66,7.29Z" transform="translate(-43.73 -12.51)"/><path class="cls-1" d="M79.15,27.06c-8.72,4.54-16.51,11.58-19.85,21a13.53,13.53,0,0,1-1.82,4A20.21,20.21,0,0,0,58,49.94c1-11.12,10.39-20.56,21.11-22.88Z" transform="translate(-43.73 -12.51)"/><path class="cls-1" d="M87.14,28a15.52,15.52,0,0,0-6.32-.47,2.4,2.4,0,0,1-1.93-.41,3.11,3.11,0,0,0-1.18-.67,20.37,20.37,0,0,0-9.18.92C62.7,29.72,59,35.67,56,40.9a45.79,45.79,0,0,0-2.51,5.91c-.81,2-1.26,4.19.26,5.94-1.92-1.46-1.81-4.16-1.19-6.23a36,36,0,0,1,2-6.29,37.89,37.89,0,0,1,7.49-11,16.17,16.17,0,0,1,12.57-4.47,24.22,24.22,0,0,1,3.38.43,4.33,4.33,0,0,1,1.56,1,1.25,1.25,0,0,0,1.13.37A13.56,13.56,0,0,1,87.14,28Z" transform="translate(-43.73 -12.51)"/><path class="cls-1" d="M81.09,45.73c.07,4.41-5.53,4.41-7.8,7.1a10.82,10.82,0,0,0-2,2.83c-1.78,2.6-5.61,2.27-8,.8a10.82,10.82,0,0,1-2.78-2.74,12.1,12.1,0,0,0-2.49-2.66,8.85,8.85,0,0,1,3.21,2c1.7,1.61,3.63,2.84,6,2.65a2.88,2.88,0,0,0,2.39-1.09A11.1,11.1,0,0,1,72,51.46a10.25,10.25,0,0,1,3.43-2c2.28-.71,4.88-1,5.67-3.71Z" transform="translate(-43.73 -12.51)"/><path class="cls-1" d="M146.46,60.51c.65-3.31.16-5.06-2.94-6.61a6.78,6.78,0,0,1-1.93-1.38c-1.68-1.68-2-4.05-2.8-6.16-1.3-3.79-3.6-7.65-7.39-9.2a6.25,6.25,0,0,0-4.07.08,5.8,5.8,0,0,1,4.3-1c4.61,1,7.59,5.3,9.05,9.49.69,1.89.9,4.07,2.2,5.64.9,1.07,2.27,1.62,3.23,2.7,1.87,1.72,1.42,4.57.35,6.47Z" transform="translate(-43.73 -12.51)"/><path class="cls-1" d="M94.41,57.12c-.5,1.32-2,.85-2.92.66-1.22,0-2.82-.44-3.67.42-.92,1.3-.13,3.35-1.49,4.51-1,.67-2,.63-3.1,1.22-1.9.79-4,1.29-4.55,3.42-.17,1.08-1.26,1.51-2,2.13.33-.81,1.15-1.33,1.08-2.24l0-.43c.19-2.42,2.77-3.74,4.6-4.6a14.8,14.8,0,0,1,2.65-1.06c.33-1.13.36-3.08,1.45-4.13,1.47-1.45,3.62-.65,5.21-.18,1,.42,1.74,1.2,2.67.28Z" transform="translate(-43.73 -12.51)"/><path class="cls-1" d="M100.7,62.45c.5-.14,1-.47,1.06-.94a1.34,1.34,0,0,0-.42-1.21,1.89,1.89,0,0,0-1.32-.13c-.94.1-2,0-2.69.61-.37.33-.52.87-.84,1.24-1,1.26-2.72,1.32-4.17,1.43a23.74,23.74,0,0,0-3.72.85,1.08,1.08,0,0,0-.78.41c-.66,1.13.54,3.12-.73,4.28-1.73,1.4-3.37,3.56-6,3.31-1.28.06-2.57.59-3.94-.08a3.43,3.43,0,0,1-1.62-2c0-.11,0,.1.09.15a.43.43,0,0,0,.1.1s0,0,0,0a2.62,2.62,0,0,0-1.19-.11c-2.51.13-4.7-1.07-6.88-2.07l0,0a.24.24,0,0,0,.1,0h-.16c-.08-.08,0,.17-.41-.25l-.06-.16c-.24-2.2-2.92-2.43-4.13-4a11.54,11.54,0,0,0,2.86,1.34A3.62,3.62,0,0,1,68,67.67L68,67.54c-.44-.42-.32-.17-.38-.24h0a1.15,1.15,0,0,1,.65.11l1.13.39a11.57,11.57,0,0,0,5.08.93,3.78,3.78,0,0,1,1.94.13,1.31,1.31,0,0,1,.8.74l.13.29c.66,1.47,2.43.46,3.74.49s2.11-.5,3.2-1.51c.42-.42,1.08-.88,1.51-1.31.17-.53-.13-1.09-.06-2a3.53,3.53,0,0,1,.65-2c1-1.2,2.17-1,3.43-1.4a11.13,11.13,0,0,1,3.31-.34,3.54,3.54,0,0,0,2.46-.68A6.49,6.49,0,0,1,96.6,59.9a3,3,0,0,1,1.78-.59c.59,0,1.11.07,1.61.09a2.37,2.37,0,0,1,1.71.48,1.49,1.49,0,0,1-1,2.57Z" transform="translate(-43.73 -12.51)"/><path class="cls-1" d="M111.84,70.2c-4.39,2.58-7.82,6.48-12.12,9.25C94.61,82.85,89.12,86.1,83,87.3c-.7.14-1.65.84-2.55.83l-.35.05c-1.38.33-3,0-3.06-1.87,0-.44,0-.22,0-.41a4.65,4.65,0,0,1-1.38-2,2.2,2.2,0,0,1,1.73-2.76,3.12,3.12,0,0,1,2.3.59c.17.14.47.07.71.09-.25,0-.49.17-.78,0a4.52,4.52,0,0,0-.71-.23c-1.24-.39-2.91.58-2.31,2,.3.92,1.43,1.15,1.72,2.1a3,3,0,0,0,.24.93c.27.32.68.12,1.29,0l.4-.09c.92-.11,1.35-.73,2.42-1,6.75-1.76,12.81-5.58,18.7-9.21,3.31-2.2,6.61-4.85,10.51-6.18Z" transform="translate(-43.73 -12.51)"/><path class="cls-1" d="M99.49,22c1.26-.77.65-2,0-2.91-.8-1.05-1.65-.07-2.72.22a.63.63,0,0,1-.77-.37,7.57,7.57,0,0,0-5.68-3.22c-.71,0-1.36.31-2.21,0a13.82,13.82,0,0,0-5.23-1.28,17.93,17.93,0,0,0-10.21,3.31c-.84.82-1.37,2.08-2.24,3,.76-1.71,1.27-4,3.14-5,4.25-3.2,10.28-4.49,15.22-2,.38.1,1.08-.14,1.59-.07a8.43,8.43,0,0,1,6.83,4.6L96.45,18c.79-.14,2.07-.79,3-.2a3.56,3.56,0,0,1,1.22,2.75A1.58,1.58,0,0,1,99.49,22Z" transform="translate(-43.73 -12.51)"/><path class="cls-1" d="M142.59,73.6c-.72.76-1.78.85-2.36,1.76-4.85,5.59-12.42,8.22-19.68,8.41,5.62-2.35,11.38-4.13,16.51-7.44,1.12-.66,2.09-1.46,3.22-2.14.75-.38,1.58-.25,2.31-.59Z" transform="translate(-43.73 -12.51)"/><path class="cls-1" d="M55.67,27.06c-1.18,3.69-1.8,9.1-2.37,12.93a4.16,4.16,0,0,1-.88,1.94c-1.36,1.32-2.88,1.68-4.44,2.76l-1.42.8c-1.08.54-1.26,1.06-1.06,2.22l.24,1.65c-.27-.49-.54-1-.77-1.5-1.19-2.23.6-3.29,2.14-4.47a27.21,27.21,0,0,1,2.77-2c1-.54,1.27-.84,1.45-1.8.76-4.27,1.58-9,4.34-12.56Z" transform="translate(-43.73 -12.51)"/><path class="cls-1" d="M124.19,76.75a32.6,32.6,0,0,1,3.07,2,.5.5,0,0,1,.13.67,3.92,3.92,0,0,1-2.37,1.8c-2.75.75-4.93-2.18-6.84-3.46-2.72-2.24-4-.61-5.25,2-.12.37-.22.78-.37,1.17,0-.42-.1-.81-.1-1.25.11-2.21,1.64-5.19,4.31-4.62s4.41,2.75,6.31,4.14a2.54,2.54,0,0,0,3.35-.36l.07.78a33.18,33.18,0,0,1-2.31-2.81Z" transform="translate(-43.73 -12.51)"/><path class="cls-1" d="M102.64,171.5c1.59,3.67,1,7.82.91,11.65,0,2.72-3.11,4.33-5.53,4.32a19.3,19.3,0,0,1-2.65-.46c.86-.23,1.74-.34,2.55-.51a6,6,0,0,0,3.53-2.56,1.41,1.41,0,0,0,.13-.79c0-4,.91-7.67,1.06-11.65Z" transform="translate(-43.73 -12.51)"/><path class="cls-1" d="M110.39,51.78c-1.29-.34-2.92-1.12-4.12-.62a3.5,3.5,0,0,0-1.47,4.56c.19.42.54.61,1.16.69,1.35.06,3-.64,4.43-.75a21.76,21.76,0,0,1-2,1.35c-2.93,2.1-6,.69-6-3.07a4.77,4.77,0,0,1,3.4-4.27c2-.35,3.34.9,4.56,2.11Z" transform="translate(-43.73 -12.51)"/><path class="cls-1" d="M142.83,57.12a9,9,0,0,0,4.07,3.25,43.81,43.81,0,0,1,5,2.28.81.81,0,0,1,.31,1.05c-1.05,2.67-1,8.81-5.55,8.71-2.29,0-2.68.73-2.73,2.63a2.21,2.21,0,0,1-.74,1.77l-.32.22c-.06,0-.11.1-.1.07a.42.42,0,0,0-.05-.31,4.18,4.18,0,0,1,.69,1.84,6,6,0,0,1-1.1,3.48,5.09,5.09,0,0,0-.93,3.12,4.82,4.82,0,0,1,.25-3.42c.46-1.33.91-2.5.28-3.61-.09-.17-.31-.46-.42-.62a1.32,1.32,0,0,1,.35-1.7c.17-.19.37-.26.38-.37s0-.8,0-1.4a4.45,4.45,0,0,1,.56-2,3.12,3.12,0,0,1,1.88-1.38c1.46-.43,3.09.13,3.86-1.39,1-1.65,1.05-4,2.12-6.3l.31,1.05c-2.73-2-7.05-3.26-8.14-6.94Z" transform="translate(-43.73 -12.51)"/><path class="cls-1" d="M95.37,76c1.82-.91,1.79-2.66,1.75-4.43a4.15,4.15,0,0,0,0-.87.46.46,0,0,0-.53-.3c-.23,0-.66.9-.78,1.06a2.65,2.65,0,0,0-.47,1,3.78,3.78,0,0,1-3.33,4c1.15-1,2.13-2.25,1.66-3.81a4.56,4.56,0,0,1,.72-2.62,2.61,2.61,0,0,1,1.81-1.61,2.34,2.34,0,0,1,2.77,1.93,4.27,4.27,0,0,1-.08,1.34c-.16,2-1.14,4.45-3.49,4.29Z" transform="translate(-43.73 -12.51)"/><path class="cls-1" d="M109.66,43.79c1.84-.12,4.65,1,4.53-1.54a4,4,0,0,0-.24-1.83c-.68-.42-2-.25-3-.18a1.24,1.24,0,0,0-.7.21,2.58,2.58,0,0,0-.11,1.07c.57,2.88-2.1,5.68-4.91,4.23-.92-.56-2.16-1.1-2.54-2.21.77.85,1.85,1,2.93,1.31a2.18,2.18,0,0,0,2.75-1.8c.07-.79-.23-1.53-.14-2.37,0-2.32,2.47-2.59,4.25-2.47,2.8-.08,3.86,1.52,3.3,4.2-.49,3.64-3.73,2.44-6.07,1.38Z" transform="translate(-43.73 -12.51)"/><path class="cls-1" d="M137,47.42a20.1,20.1,0,0,1,1.39,1.69c.34.48.91,1.15.68,1.93a2.05,2.05,0,0,1-2.08,1.4,2.68,2.68,0,0,1-1.39-.68,9.36,9.36,0,0,0-6-2.72,21.73,21.73,0,0,1-3.21-.65,20,20,0,0,1,2.1-.5c2.26-.47,4.72-.53,6.71,1,.81.65,1.32,1.12,2,1.75.11.11.1.15.45,0,.14-.11.13.06.16-.17-.18-.92-.62-2-.75-3Z" transform="translate(-43.73 -12.51)"/><path class="cls-1" d="M94.89,43.06a2.78,2.78,0,0,0-1.22,3c.2.79.25,1.55.83,2a1.16,1.16,0,0,0,1.48.1,2.77,2.77,0,0,0,1.21-2.67A1.49,1.49,0,0,0,96.34,44a1.29,1.29,0,0,1,1.07.24c2,1.67,1,5.31-1.47,6a3.15,3.15,0,0,1-3.51-1.85c-.82-2.1-.21-5.28,2.46-5.37Z" transform="translate(-43.73 -12.51)"/><path class="cls-1" d="M45.74,56.39c-.74,4,.18,9.61,3.43,12.27a7,7,0,0,0,.93.09,3.11,3.11,0,0,1-1,.46c-5.21-.68-7-9.42-3.41-12.82Z" transform="translate(-43.73 -12.51)"/><path class="cls-1" d="M75.52,86.44A7.62,7.62,0,0,1,70.1,81.8a6.21,6.21,0,0,0-3.66-4.34,1.68,1.68,0,0,0-1.57.5,2.1,2.1,0,0,1,.5-.94c2.08-1.76,5.65,1,6.31,3.19.55,2.53,2.07,4.3,3.84,6.23Z" transform="translate(-43.73 -12.51)"/><path class="cls-1" d="M92.23,171.26c.86,3.93,1.16,8-.25,11.88-1.35-3.8-1.62-8.21.25-11.88Z" transform="translate(-43.73 -12.51)"/><path class="cls-1" d="M82.78,53.24a40.78,40.78,0,0,1-5.43.77c-1.58.15-2.92.5-3.28,2.13l0-.6c0,.09,0,.08.11.13.8.31,2.1.51,2.5,1.56a.88.88,0,0,1,.07.5c-.35,1.93-.25,4.65-1.76,6.35a4.49,4.49,0,0,1-1.85,1.28,5.3,5.3,0,0,0,1.64-3.61c.11-1.32-.06-2.72.08-4.27l.11.57c-.5-.34-1.18-.25-1.83-.68-2-1.11-.48-3.68,1.14-4.41a5.94,5.94,0,0,1,3.05-.46,40.89,40.89,0,0,1,5.49.74Z" transform="translate(-43.73 -12.51)"/><path class="cls-1" d="M112.32,27.06c0-2.34,2.46-3.67,4.48-4,1-.3,2.08-.59,3.06.13a5.09,5.09,0,0,1,1.53,2.34c.25.42.3.56.68.68,2.9.65,3.71,3.43,2.84,6-1.12-6.33-3.84-2.29-5.56-6.35-.26-.55-.47-1.21-1.11-1.22-2.14.28-4.78.28-5.92,2.48Z" transform="translate(-43.73 -12.51)"/><path class="cls-1" d="M117.89,20.76c-3.71,1-7.46.89-11.11,2-1.08.33-2-.2-2.93-.54.6-.22,1.25-.23,1.77-.38a13.46,13.46,0,0,1,12.27-1.08Z" transform="translate(-43.73 -12.51)"/><path class="cls-1" d="M118.62,35.3c.47-1.29,1.85-2.13,2.95-2.79l.78-.5c1.75-1.1,3.89-.41,5.47.61s3.48,1.37,5.33,2.2a11.12,11.12,0,0,1-6.12-.47c-1.19-.54-2.52-1.29-3.82-.82-1.54.74-3.17.81-4.59,1.77Z" transform="translate(-43.73 -12.51)"/><path class="cls-1" d="M140.89,74.08c-.5-1.38-.24-3.1-1.4-4.09l1.29-.14c-.68,1.8-2.82,1.83-3.92,2.93a1.74,1.74,0,0,1-.69.58c-2.58,1-5.16-2.14-3.8-4.45.8-1.31,2-1.62,2.71-2.59-.37,1.87-2.59,3.18-1,4.81a1.7,1.7,0,0,0,1.3.4.59.59,0,0,0-.24.22l.19-.24c1.05-1.49,3.28-1.17,4.23-2.56a.71.71,0,0,1,1.14,0c1.2,1.51.57,3.45.2,5.09Z" transform="translate(-43.73 -12.51)"/><path class="cls-1" d="M115,94.68c1.29.52,2.52.14,4,.64a4,4,0,0,1,2.18,1c.91,1.33.41.79.64.9s.76-.13,1.14-.12c0,0,0,0,0,0s-.27.23-.25.3c.08-.22,0-.91.17-1.27a3.37,3.37,0,0,1,2.58-2,16.46,16.46,0,0,1,2.08-.16c-.92.75-2.39,1.15-2.87,2.2a1.64,1.64,0,0,0-.15.53,3.33,3.33,0,0,1,0,1.19A1.63,1.63,0,0,1,122.94,99a3.28,3.28,0,0,1-2,0,2.18,2.18,0,0,1-1.1-1.3c-.11-.45-.6-.47-1.44-.93-1-.64-2.7-.92-3.43-2.07Z" transform="translate(-43.73 -12.51)"/><path class="cls-1" d="M136.78,86.56c-.67,3.07-1.68,5.89-2,9-.06,1.88-.39,4.09-1.68,5.56a34,34,0,0,0-.21-5.64,12.28,12.28,0,0,1,3.85-8.9Z" transform="translate(-43.73 -12.51)"/><path class="cls-1" d="M131.69,71.9c-1,.82-2.51.66-3.42,1.16s-1.34,1.48-2.15,2.47a3.13,3.13,0,0,1,1.23-4.24c1.66-.79,2.9-.06,4.34.61Z" transform="translate(-43.73 -12.51)"/><path class="cls-1" d="M88.11,19.79c-2.1,1.34-4.45,1-6.78.49,1.57-2.15,4.78-1.89,6.78-.49Z" transform="translate(-43.73 -12.51)"/><path class="cls-1" d="M50.34,46.94A29.41,29.41,0,0,1,46.59,50c-1.41.9-1,1.27-.41,3.08a21.11,21.11,0,0,0,2.88,6.17,2.43,2.43,0,0,0,1.76,1.25A2.52,2.52,0,0,1,48.36,60c-2.39-1.77-3.67-4.66-4.43-7.41a3,3,0,0,1,1.87-3.88,30.17,30.17,0,0,1,4.54-1.73Z" transform="translate(-43.73 -12.51)"/><path class="cls-1" d="M90.53,29.49c-.94-1.22-.78-2.6-2.25-3.16a14.43,14.43,0,0,1-1.62-.72,3,3,0,0,1,2.88-.76c2,.65,2.13,3.23,1,4.64Z" transform="translate(-43.73 -12.51)"/><path class="cls-1" d="M108.69,41.61c-1.83.78-3.68.44-5.57.48.62-2.56,4.31-2.49,5.57-.48Z" transform="translate(-43.73 -12.51)"/><path class="cls-1" d="M100.7,20.52c2.88-1.62,4.55,2.33,4.67,4.62a3.3,3.3,0,0,1-.8,2.41,11.25,11.25,0,0,0-.74-2.09c-.29-.62-.6-1.24-.88-1.95-.55-1.61-.59-2.23-2.25-3Z" transform="translate(-43.73 -12.51)"/><path class="cls-1" d="M91.26,84c.86.51,1.12-.09,2.12,0,.84,0,2.1.23,2.48,1.24a6.07,6.07,0,0,1-2.53.76c-.9.08-2.71-.64-2.07-2Z" transform="translate(-43.73 -12.51)"/><path class="cls-1" d="M89.08,15.19c.8,1.81.11,2.69-.49,4.6-2.17-.8-1.37-3.87.49-4.6Z" transform="translate(-43.73 -12.51)"/><path class="cls-1" d="M127.33,92.5c.66.45,1,1,1.5,1.2.06,0,0,0,.08,0a6.4,6.4,0,0,0,1.36-.33c.79-.27,1.24.49,1.18,1.09-.32,0-.62-.16-.75-.06s.05.14.16.14.06,0,0,0c-1.62,2.36-4.88.69-3.57-2Z" transform="translate(-43.73 -12.51)"/><path class="cls-1" d="M106,22.46a1.52,1.52,0,0,1,1,2.67,1.52,1.52,0,0,1-1-2.67Z" transform="translate(-43.73 -12.51)"/><path class="cls-1" d="M63.41,82.32c1.24.59,1.12,1.48-.24,1.7-1.24-.6-1.11-1.48.24-1.7Z" transform="translate(-43.73 -12.51)"/><path class="cls-1" d="M137.5,86c-.48-1.08.86-1.93,1.76-1.67s.91.62,1.63,1.19a1.29,1.29,0,0,1-1.08.78c-.58.06-1,.09-1.33-.21-.14-.12-.45-.14-1-.09Z" transform="translate(-43.73 -12.51)"/><path class="cls-1" d="M252,253.89c-5.39,10.36-14.87,18.75-25.44,23.67a76.7,76.7,0,0,1-16.9,5.26,98.05,98.05,0,0,1-35.21-1.11,169.41,169.41,0,0,1-33.66-10.15c-3.91-1.64-8.1-3.68-11.93-5.55-1.2-.64-3.13-1.07-3.16-2.72.16,1.64,2,1.87,3.28,2.44,3.94,1.68,8.18,3.48,12.18,4.93a135.66,135.66,0,0,0,16.63,5.3c11.23,2.88,22.62,5.69,34.25,5.84a76,76,0,0,0,33.9-5.66A58,58,0,0,0,252,253.89Z" transform="translate(-43.73 -12.51)"/><path class="cls-1" d="M222.62,148.9c-1.21-1.51-3.16-1.71-4.93-2.08a152.88,152.88,0,0,0-16.42-1.94c-20.15-1.66-40.4,1.67-59.62,7.73l-2.64.83c-.83.34-1.88.35-2.47,1.09.51-.81,1.57-.95,2.37-1.37l2.56-1c12-4.79,24.75-8.35,37.71-9.09a106.65,106.65,0,0,1,22.24.31,104.74,104.74,0,0,1,16.39,3c1.74.48,3.79.94,4.81,2.59Z" transform="translate(-43.73 -12.51)"/><path class="cls-1" d="M247.32,250.6a42.43,42.43,0,0,1-21.53,17.63,75.52,75.52,0,0,1-27.61,5.44,67.14,67.14,0,0,1-18.6-1.93,95.06,95.06,0,0,0,18.55.37,90.26,90.26,0,0,0,27-5.64,48.53,48.53,0,0,0,22.21-15.87Z" transform="translate(-43.73 -12.51)"/><path class="cls-1" d="M265.66,209.5c4.4,3,8.25,7.9,7.27,13.56-.9,6.9-11.59,10.06-17.3,11.66-8.52,2.47-17.5,3-26.24,3.53a179.29,179.29,0,0,1-21.12-.1c7-.34,14-.81,21-1.46,8.69-.86,17.41-1.52,25.85-3.86,5.12-1.42,15.43-4.06,16.51-10,1.22-5.29-2.19-10-6-13.34Z" transform="translate(-43.73 -12.51)"/><path class="cls-1" d="M126.19,237.45c.1,5.58,6.27,7.7,10.5,9.79,11.83,5,25.22,5,37.64,2.23,1.25-.31,2.49-.67,3.73-1.05a8.28,8.28,0,0,1,1.93-.49c.7,0,1.29.32,1.94.32-1,.1-1.9-.27-2.79.28-1.48.7-3,1.32-4.53,1.88-12.42,4.06-26.68,4.08-38.57-1.76-4.27-2.36-10.63-5.39-9.85-11.2Z" transform="translate(-43.73 -12.51)"/><path class="cls-1" d="M200,250.6c3,.79,4.16,4,5.06,6.62,1,2.12-.87,3.65-2.79,4a16.42,16.42,0,0,1-4.87.83c-2.88-.23-5.72.25-8.64-.3a4.76,4.76,0,0,0-3.12.21,9.94,9.94,0,0,0-2.71,2.09,27.24,27.24,0,0,1-6.21,4.7c-5.08,2.7-11,2.29-13.75-3.38-.3-.56-.56-1.17-.8-1.73s-.73-1.15-.51-1.79c-.1.67.4,1.12.77,1.64s.65,1.08,1,1.59c3,4.78,7.94,4.72,12.46,2.12,3.53-1.8,5.48-5.18,8.94-7.07a6.78,6.78,0,0,1,4.29-.3c2.4.48,4.91.21,7.42.43a14.78,14.78,0,0,0,5.37-.44c.87-.16,2.19-.52,2.26-1.54-.58-2.77-1.27-6.36-4.18-7.71Z" transform="translate(-43.73 -12.51)"/><path class="cls-1" d="M191.34,240.5a3.37,3.37,0,0,1-1.05,1.58c-1.34,1.33-2.9,2.46-4.33,3.66a18.93,18.93,0,0,0-4.69,5.55c-.93,1.61-1.8,3.32-2.77,4.93a14.2,14.2,0,0,1-1.36,2.61c-2.83,3.68-7.2,3.08-10.46.55-1.52-.95-2.76-1.82-4.36-1.14a6.46,6.46,0,0,1-2,.64c-3.93.67-6.8-3.94-10.67-2.6a3.66,3.66,0,0,0-1.34,1,2.16,2.16,0,0,1-3.59-.18c-.39-.48-.61-1.21-1.34-1.14.69-.2,1.14.54,1.56.93,1.47,1.5,2.44.39,3.42-.9,1.29-1.31,3.28-1.25,4.95-.92a15.31,15.31,0,0,1,3.61,1.52,5,5,0,0,0,3.89.32,5.84,5.84,0,0,1,3.07-.83,5.77,5.77,0,0,1,2.13.62c1.65.77,3.19,2.16,4.82,2.56a4.58,4.58,0,0,0,5.26-2.28,45.57,45.57,0,0,1,6.3-9.6,32.66,32.66,0,0,1,6.18-4.5c1-.73,2.25-1.27,2.79-2.42Z" transform="translate(-43.73 -12.51)"/><path class="cls-1" d="M270.36,227.58c1.26,2-.26,3.93-1.75,5.19a41.22,41.22,0,0,1-4.45,3.75c-6.27,4.61-13.69,7.35-21.08,9.52a71.21,71.21,0,0,1-11.29,2.45c3.64-1.29,7.22-2.59,10.8-3.93,7-2.65,14.36-5.36,20.71-9.33,1.6-1,3.14-2.06,4.69-3.22,1.58-1,3.11-2.38,2.37-4.43Z" transform="translate(-43.73 -12.51)"/><path class="cls-1" d="M238.14,212.55c-5.86.74-11.1,3.25-16.59,5.24s-11.34,3-17.05,4.39c-1.88.49-3.92.65-5.77,1s-4.18.74-6-.21a.27.27,0,0,1-.14-.24,1.91,1.91,0,0,0-.3-1.37,1.52,1.52,0,0,0-1.41-.31,1.67,1.67,0,0,1,1.62.08,2.32,2.32,0,0,1,.66,1.59l-.18-.26c1.89.58,3.63,0,5.49-.53,1.43-.4,2.85-.62,4.26-1,4.2-1.18,8.44-2.29,12.67-3.32,7.53-1.61,14.84-5.57,22.75-5Z" transform="translate(-43.73 -12.51)"/><path class="cls-1" d="M136.07,155c-5.15,1.57-9.37,5-14,7.61-4.47,2.81-7.9,6.76-11.15,10.93a43.08,43.08,0,0,0-5.68,9,27.57,27.57,0,0,1,4.41-9.86c3.38-5.31,8-10.23,13.83-12.9,3.93-2,8-4.47,12.57-4.73Z" transform="translate(-43.73 -12.51)"/><path class="cls-1" d="M104.08,205.27c.7,3.45-2.33,6.24-5,7.81a29.81,29.81,0,0,0-2.67,2.61,2,2,0,0,0-.26,2.85c.65,1.16,1.14,1.25,2.85,1,3.29-.49,4.86,2.56,4.26,5.45a5.87,5.87,0,0,1-2,3c-.55.47-1.34.65-1.54,1.36a1.53,1.53,0,0,0,.2,1,1.74,1.74,0,0,1-.51-1.05c0-.85.86-1.37,1.33-1.9,1.51-1.65,1.84-4.46.08-5.89-1.14-.56-2.86.4-4.19-.13a3.86,3.86,0,0,1-2.19-1.91,4.47,4.47,0,0,1-.67-2.72,4,4,0,0,1,1.39-2.48,21.41,21.41,0,0,1,3.13-2.62c2.77-1.35,5.54-3.06,5.86-6.43Z" transform="translate(-43.73 -12.51)"/><path class="cls-1" d="M201,222.65c.27,1.55,1.79,1.72,3.06,2.11,2.5.77,5.1,1.61,7.66,1a3.41,3.41,0,0,1,2.71.29c1.32,1,2.05,3.28,1,4.68a2.67,2.67,0,0,1-2.23.81,5,5,0,0,0-4.06,1.46c-2.08,1.75-4.08,3.67-6.3,5.37a57.11,57.11,0,0,1,5.23-6.51,6.18,6.18,0,0,1,4-2.21c.53-.11,1.3,0,1.74-.12.07-.06,0,0,0-.09a2.58,2.58,0,0,0-.59-1.77c-.19-.16-.6-.17-1.29-.05-3,.51-5.84-.66-8.37-2-1.17-.58-2.94-1.39-2.69-3Z" transform="translate(-43.73 -12.51)"/><path class="cls-1" d="M261.66,217.48a17.71,17.71,0,0,1,6.21,5c1.78,3.44-3,5.25-5.58,5.64-2.74.44-5.35,0-7.77.17-2.5.37-5.71.6-7.44-1.64,2.36,1.53,4.79.67,7.26.09,3.92-.61,7.55.12,11-1.62,1.88-.86,1.39-2,.19-3.34a44.66,44.66,0,0,0-3.85-4.29Z" transform="translate(-43.73 -12.51)"/><path class="cls-1" d="M233.2,253.89c-2.91.61-5.4-2.09-8.12-2.28,0,0,0-.05,0,.06a12.26,12.26,0,0,0-.23,2.09l-.15,2.45c-.69,7.39-9.13,4-13.13,1.54-1.41-.83-2.74-1.74-4.09-2.61S205,253,203.33,253c1.65-.43,3.23.72,4.64,1.33,3.85,1.68,8.67,4.81,12.91,4.42,2.17-.39,2-3.41,2.24-5.1.5-8,6.39.26,10.08.29Z" transform="translate(-43.73 -12.51)"/><path class="cls-1" d="M236.26,228.29c-3.45,1.08-5.95,3.74-9.43,4.85-5.75,1.25-12,2.54-17.62.32,5.8.26,11.45-1.2,17.1-2.13,3.3-.82,6.34-3.2,9.95-3Z" transform="translate(-43.73 -12.51)"/><path class="cls-1" d="M120.55,227.58c-.77,1.28-.57,2.65-.42,4.07a14.45,14.45,0,0,1-.45,4.38c-.44,2.42-1.19,5.25-1.52,7.54,1.59,2.43.59,5-1.75,6.77-.6.51-1,.85-1,1.08,0,.39.6,1.1.74,1.52.95,1.92,1.56,4,3.22,5.41a8,8,0,0,1-3.17-3c-.6-.89-1.13-1.77-1.77-2.59a2.25,2.25,0,0,1-.58-1.41,3.44,3.44,0,0,1,1.37-2.32c1.28-1.22,2.44-2.71,1.27-4.41a2,2,0,0,1-.3-1,44.54,44.54,0,0,1,2-8l.62-2c.68-1.93,0-4.52,1.76-6Z" transform="translate(-43.73 -12.51)"/><path class="cls-1" d="M263.07,206.68c-2.95.39-4.28,1-5.36,3.91a31.06,31.06,0,0,1-9,12.53,23.61,23.61,0,0,1-5.8,3.57,5.25,5.25,0,0,1-1-.05,5.22,5.22,0,0,0,.89-.24,52,52,0,0,0,13.52-16.51c1.49-2.93,3.61-3.87,6.75-3.21Z" transform="translate(-43.73 -12.51)"/><path class="cls-1" d="M238.14,254.13c-2.43-1-4.37-2.9-6.34-4.52s-4.43-2.63-6.65-4.1a4.59,4.59,0,0,0-3.25-1.2,6.34,6.34,0,0,0-4.57,2.49c-1.49,1.45-2.46,3.42-4.49,4.18a4.67,4.67,0,0,1-6-2.18,14.63,14.63,0,0,1-1-3c-.23-.71-.17-1.6-.46-2.26a12.13,12.13,0,0,0-2-3.5c-1.64-1.83-4.37-.68-6.41-.17-4,1-7.72,1-11.61,1.86l-3.83.77c-3.56.69-10,2-13.49,2.62-1.7.19-3.24-.37-4.85-.17s-3.23.62-4.82.8a53.29,53.29,0,0,1-15.75-.46c-5.06-.82-10.76-2.68-13.13-7.66,2.75,4.69,8.21,6.17,13.27,6.69a55.93,55.93,0,0,0,15.4-.11c1.64-.24,3.14-.61,4.78-.94s3.33.25,4.89.08c5-1,12.09-2.53,17.14-3.56,4.06-1,8.49-.93,12.43-2.05,2.39-.76,5.54-1.16,7.36,1a12.17,12.17,0,0,1,2.1,3.64,5.89,5.89,0,0,1,.55,2.14c.25,1.52.71,3.8,1.89,4.64,1.6,1.1,3.88.33,5-1.17a24.3,24.3,0,0,1,3.58-3.59c2.4-1.64,5.65-1.87,7.85.26,2,1.53,4.39,2.76,6.41,4.48s3.64,3.72,6,4.93Z" transform="translate(-43.73 -12.51)"/><path class="cls-1" d="M198.16,235.1c-7.11.8-13.94,3-21.15,2.83-1.91-.06-5,.72-5.5-1.94-1.84-6.44,2.7-5.65,4.54-10.05,0,3.13-4.33,4.78-3.37,8a14.17,14.17,0,0,0,.62,2,.52.52,0,0,0,.38.2c1,.1,2.26-.15,3.3-.11,3.87-.12,7.8-.38,11.65-.82a34.18,34.18,0,0,1,9.53-.06Z" transform="translate(-43.73 -12.51)"/><path class="cls-1" d="M262.84,199.4a38.43,38.43,0,0,1,1.89,4.25,5.26,5.26,0,0,1-.67,3.61c-1.05,3.18-1.11,6.86-2.76,9.92-2.15,4.09-5.59,8.37-10.3,9.36a8.74,8.74,0,0,1-4.63-.6,10.24,10.24,0,0,0,4.4-.36c4-1.55,6.81-5.61,8.73-9.27,1.46-2.73,1.72-5.58,2.75-8.53a12.42,12.42,0,0,1,1.08-2.12c1.12-1.93-.31-4.19-.49-6.26Z" transform="translate(-43.73 -12.51)"/><path class="cls-1" d="M100.55,230.4a6.59,6.59,0,0,0-.31,7c2.56,5.14,6.57,9.26,10.63,13.28L110,251c.24-.84.48-1.68.75-2.52a.17.17,0,0,1,.31,0c.28.14.91-.14,1.13.26a.85.85,0,0,1,.11.42.81.81,0,0,0-.21-.33c-.22-.16-.45,0-.69.08a.84.84,0,0,1-.56,0l.36-.19c0,.82-.1,1.64-.16,2.45a.49.49,0,0,1-.53.45,29.29,29.29,0,0,1-11.13-12.06,14.86,14.86,0,0,1-1.13-3.18c-.29-2.22.38-4.8,2.29-6Z" transform="translate(-43.73 -12.51)"/><path class="cls-1" d="M192.28,223.12c-1.46,1.48-3.71,1.29-5.6,1.58-3.23.57-6.53,1-9.79,1.26a184.46,184.46,0,0,1-31.62-.29c-3.92-.53-7.83-1.27-11.68-2.16a4,4,0,0,0-3.17.28l.33-1.22a17.44,17.44,0,0,0,11.41,9c2.46.69,5,1.08,7.6,1.57,2.24.6,6.2.48,6.3,3.6-.69-6.08-18.91,1.43-26.87-13.29-.63-1.38,1.58-1.8,2.56-2,1.51-.18,4.58.71,6.07.95q3.84.75,7.71,1.25a155.15,155.15,0,0,0,15.6,1c5.24.15,10.46.25,15.69.11,3.25-.1,6.55-.27,9.79-.58,1.94-.18,4,.25,5.67-1.06Z" transform="translate(-43.73 -12.51)"/><path class="cls-1" d="M263.07,194c1.91-1.47,1.91-3.9,1.42-6a50.18,50.18,0,0,0-1.16-6.59c-.57-2.94-1.22-5.61-3.05-8a42.38,42.38,0,0,0-5.17-7c-3.17-2.9-6.52-6.12-10.2-8.31-5.13-2.91-10.32-5.89-15.9-7.9-1.93-.81-7.3-2.19-7.57.89a1.85,1.85,0,0,1,1.08-1.9c2.16-.9,4.63-.53,6.78.08a55.47,55.47,0,0,1,8.5,3.13c2.76,1.24,5.38,2.65,8.06,4.06a50.62,50.62,0,0,1,9,7c2.95,2.44,5,5.81,6.94,9.07,1.8,2.48,2.49,5.74,2.84,8.71a37.93,37.93,0,0,1,.62,6.72c.31,2.2,0,4.94-2.16,6.12Z" transform="translate(-43.73 -12.51)"/><path class="cls-1" d="M143.24,255.07c.36,1.54-.82,2.95-1.74,4a.35.35,0,0,1-.3.12c-2,.09-3.43-1.63-5.19-2.28a1.91,1.91,0,0,0-2.68.9c-1.69,2.94-4.65,5.82-8.08,6.41a7,7,0,0,1-4.49-1.6,4.75,4.75,0,0,1-1.3-1.12c-1.4-2.07-.46-4.17.11-6.2,1.5-5.78,2.9-8.22,8.27-11.07-1.33,1.33-2.94,2.4-4,3.84-1.6,2.19-2.07,5-2.65,7.65-.31,1.47-1.26,3.85.11,4.92,2,1.46,3.73,2.3,6,.72a11.76,11.76,0,0,0,3.88-3.39,8.12,8.12,0,0,1,2-2.32c2-1.36,4.29.42,5.8,1.69a4.24,4.24,0,0,0,2.25,1.11l-.29.12c1.08-1,2.3-1.93,2.3-3.53Z" transform="translate(-43.73 -12.51)"/><path class="cls-1" d="M250,205.27c1.92,2-1.85,4.34-2.26,6.07v-.63a.44.44,0,0,0,.34.22,5.73,5.73,0,0,1,2.42.35,2.42,2.42,0,0,1,1.08,1.41.92.92,0,0,1-.13.84,17.2,17.2,0,0,1-2.29,2.61,13.86,13.86,0,0,1-2.88,2.09.88.88,0,0,1-.95-.09c-2-1.46-2.07-4.42-3.89-5.86a3.13,3.13,0,0,0-2.13,0,5.48,5.48,0,0,1,1.06-.6c1.3-.67,2.68.61,3.35,1.51,1,1.17,1.46,2.64,2.7,3.45l-1-.05a19.34,19.34,0,0,0,4.47-4.24l-.15.87c-.2-.5-.21-.41-.82-.5a5.33,5.33,0,0,1-1.32-.19,2,2,0,0,1-1.32-1.32c-.14-.84.77-1.58,1.23-2.1l1.32-1.16c.8-.75,1.84-1.51,1.19-2.72Z" transform="translate(-43.73 -12.51)"/><path class="cls-1" d="M187.11,224.77a.87.87,0,0,0,.74.72,23.25,23.25,0,0,1,3.54,1.16,24.5,24.5,0,0,1,6.43,3.88,4.18,4.18,0,0,1,1.66,2.47c.17,1.17-.33,1.61-.58,2.52-.06.68.23,1.55.2,2.4-.46-.93-1.42-1.91-1.18-3.14a4.28,4.28,0,0,0,.11-.57c.13-1.07-.4-1.5-1.37-2.19l-2-1.35-4-2.64-2-1.34c-.62-.48-1.82-.93-1.52-1.92Z" transform="translate(-43.73 -12.51)"/><path class="cls-1" d="M138.19,231.34c-.95,4.81-6.75,7.28-11.26,6.56l-.54-.12a1.9,1.9,0,0,1-1.61-2.21c.35.73.88,1.16,1.48,1.08,4.43-.42,8.83-2,11.93-5.31Z" transform="translate(-43.73 -12.51)"/><path class="cls-1" d="M111.84,213.49c.08,1.91.24,4.57.27,6.47a21.34,21.34,0,0,1-.17,3.28c-.14,1-.33,1.87.61,2.7-2.7-.19-2.23-4-2.44-6a10.42,10.42,0,0,1,1.73-6.49Z" transform="translate(-43.73 -12.51)"/><path class="cls-1" d="M157.94,237.45a19.21,19.21,0,0,0-6.31,2.48c-1.35.9-2.75,1.47-2.8,3.19a5.05,5.05,0,0,1-.3,1.85c-.37-1.3-1.29-2.37-.71-3.87,1.57-3.32,6.9-5.33,10.12-3.65Z" transform="translate(-43.73 -12.51)"/><path class="cls-1" d="M262.6,194.46a23.08,23.08,0,0,1-7.63,7.75c-1.37.94-2.67,2.55-4.34,3.34s-3.29,1.4-4.85,2.2c-2.29,1.28-4.71,1.26-6.7,2.69a7.84,7.84,0,0,1,2.86-2.31c2.78-1.38,4.95-3.08,7.81-4.33,1.54-.85,2.56-2.15,4.19-3.17a50.71,50.71,0,0,0,8.66-6.17Z" transform="translate(-43.73 -12.51)"/><path class="cls-1" d="M113.49,225.47c.87.3,1.73.62,2.58.94l-.41.12c.5-1,.31-2.24.38-3.56a4.32,4.32,0,0,1,2.11-3.7l-.29,1.18a21.64,21.64,0,0,0-3.64-4.3l1.37-.13c-2.47,3,.25,8.09-2.35,10.82a1.14,1.14,0,0,0,.26.71c1.52,2,3.5,3.81,6.22,4a6.55,6.55,0,0,1-2.71-.11,10.3,10.3,0,0,1-4.62-3,2.62,2.62,0,0,1-.7-1.72c0-.5.46-1,.64-1.46.61-1.32.17-3,.13-4.86s.26-4.06,1.63-5.64c1.58-1.68,4.41,3.75,5.16,4.82.57,1.14-1,1.2-1.43,2-1,1.53-.46,3.77-1.66,5.28a.27.27,0,0,1-.37.07c-.78-.49-1.54-1-2.3-1.51Z" transform="translate(-43.73 -12.51)"/><path class="cls-1" d="M126.9,220.54c-.5.36-1.28.68-1.26,1.26a2.72,2.72,0,0,0,.11.67c0,.17.15.25,0,.14a1.87,1.87,0,0,0,.65,0,10.79,10.79,0,0,1,3.51.7,7.63,7.63,0,0,1-3.35,1.19c-3.9.92-3.47-5.62.3-4Z" transform="translate(-43.73 -12.51)"/><path class="cls-1" d="M263.07,195.17c2.5.92,3.44,3.86,3.52,6.29a2.35,2.35,0,0,1-1.63,2.17,5.21,5.21,0,0,0,.22-1.15c0-1-.7-1.93-.9-2.93-.37-1.38-.78-3-1.21-4.38Z" transform="translate(-43.73 -12.51)"/><path class="cls-1" d="M153.24,225.7a8.83,8.83,0,0,1,.47,8.23,8.8,8.8,0,0,1-.47-8.23Z" transform="translate(-43.73 -12.51)"/><path class="cls-1" d="M158.41,157.59c.73-.31,1.53-.35,2-.64a2.2,2.2,0,0,0,.84-1.18l.53,1.32c-2.19-.63-4.3-.49-6.64-.91a7.52,7.52,0,0,1,7.41-.82c1.1.56.21,1.75-.48,2.31-1.05,1-2.64.47-3.64-.08Z" transform="translate(-43.73 -12.51)"/><path class="cls-1" d="M186.17,197.52a7.51,7.51,0,0,0,3-1c.11-.08.05-.08,0-.07a1,1,0,0,0-.42-1c-.22-.12-.21-.18-.42-.15a6,6,0,0,1-1.23.63c-.43.12-.75.19-1,.69-.3-.48.07-1.17.43-1.51s.31-.58.87-1.1a2,2,0,0,1,2.18-.25,2.59,2.59,0,0,1,1.21,3.65,2.14,2.14,0,0,1-1.8.9,3.33,3.33,0,0,1-2.89-.75Z" transform="translate(-43.73 -12.51)"/><path class="cls-1" d="M145.71,157.12a54.44,54.44,0,0,1-7.25.92c-1.68.17-3-.48-2.63-2.33.66.7.78,1.15,1.74.78,2.61-.86,5.79-1.06,8.14.63Z" transform="translate(-43.73 -12.51)"/><path class="cls-1" d="M139.13,165.57c.68-.5,1.64-.59,2.2-1l-.49,1.1c-.17-.35-.32-.7-.47-1s-.22-.33-.16-.36-.34-.09-.72,0c-1.5.48-1.59.43-.68-1a2,2,0,0,1,1.61-.83,1.78,1.78,0,0,1,1.11.46,3.82,3.82,0,0,1,1.1,2.32.81.81,0,0,1-.53.9,3.39,3.39,0,0,1-3-.61Z" transform="translate(-43.73 -12.51)"/><path class="cls-1" d="M119.84,197.52c-.15-.7.45-1.44.66-2s0-.43-.18-.86l1.18.44a5.17,5.17,0,0,0-2.84,2.41,2.82,2.82,0,0,1,0-2.59,3.69,3.69,0,0,1,2.21-1.72c1.08-.27,1.5,1,1.46,1.92-.14,1.53-1.53,1.71-2.54,2.39Z" transform="translate(-43.73 -12.51)"/><path class="cls-1" d="M240.73,229c.31-1.61.68-2.93-.81-3.9l.88.19c-1.76.54-3.18.23-4.71,1l.1-1c.52.73.23,1.49.4,2.24a1.23,1.23,0,0,0,.38.53,1.4,1.4,0,0,1-1.27-.9c-.19-.34-.3-.78-.59-.94-.46-.3-.24-.74.1-1,1.28-1.45,3.58-1.5,5.18-1.79.87-.1,1.35.84,1.74,1.52.76,1.5-.27,3.25-1.4,4.07Z" transform="translate(-43.73 -12.51)"/><path class="cls-1" d="M173.23,161.23c-1.85,2.28-5.26,2.35-7.86,1.62-.86-.21-2.07-.66-2.37-1.62a5.51,5.51,0,0,0,2.52.05c2.68-.11,5,.13,7.71-.05Z" transform="translate(-43.73 -12.51)"/><path class="cls-1" d="M199.34,159.47a8.79,8.79,0,0,0,.81-1.54c0-.16-.08-.05-.13-.22a2.42,2.42,0,0,1-.26-1.13l1.05,1.06a2.79,2.79,0,0,1-1.23-.25c-.05,0,.06,0,.09-.09s0,0-.15,0a3.82,3.82,0,0,1-1,.73c-1.24.62-1.27.58-.78-.69.5-1.65,1.25-2.31,2.9-1.73l1.06,1.05c-.05.08.2,1.07,0,1.42a2.26,2.26,0,0,1-2.42,1.34Z" transform="translate(-43.73 -12.51)"/><path class="cls-1" d="M211.57,173.09c-2.24,1-4,2.79-6.59,2.58,1.18-2.23,4.22-4.35,6.59-2.58Z" transform="translate(-43.73 -12.51)"/><path class="cls-1" d="M162.65,233.69a5.74,5.74,0,0,0,1.38,3.52c2.44,2.29,3.92,4,.73,6.58a17.06,17.06,0,0,0,.26-2.64,8,8,0,0,0-1.48-1.62c-1.73-1.47-2.41-4-.89-5.84Z" transform="translate(-43.73 -12.51)"/><path class="cls-1" d="M141,179.67c.65-.24.55-.82.91-1.26v0c0-.05-.06,0-.09,0s0,.06-.09,0l-.19-.3,0,0s.06.06.1.1c.24.09.13,0-.08,0l-.67.11a1.21,1.21,0,0,0-1,.9c-1.44-1.48,1.15-3.69,2.84-2.76,1,.62,1.36,2.38.28,3.07-.55.29-1.48.78-1.94.16Z" transform="translate(-43.73 -12.51)"/><path class="cls-1" d="M183.58,148.43a13.06,13.06,0,0,0-1.72-.19c-.1,0-.05.07,0,.1a15.69,15.69,0,0,1-1,1.43l-.08-.93c.08.19,0,.3.2.46a3.07,3.07,0,0,0,1,.3,1.59,1.59,0,0,1-1,.82c-.68.18-1.92-.36-1.71-1.19.58-2.62,3.31-4.08,4.38-.8Z" transform="translate(-43.73 -12.51)"/><path class="cls-1" d="M233.67,174.5c-2.55-.07-3.76-2-2.15-4.12l.17,1.35a1.63,1.63,0,0,1-.61-.91l-.11-.39s0,0,0,0,0,0-.13-.07c-1.89-.74-3.08-2.29-4.93-3.15a3.94,3.94,0,0,1,2.1-.05,28.17,28.17,0,0,1,3.6,1.37,2.05,2.05,0,0,1,1.23,1.23,2.89,2.89,0,0,1,.12.55c0,.08,0-.06-.12-.1l.16,1.35c-.32.41-.73.73-.68,1.23s1,1.3,1.35,1.7Z" transform="translate(-43.73 -12.51)"/><path class="cls-1" d="M172.05,236.27c-.37,2.73-3.66,4.19-6.11,3.29,1.72-1.81,3.78-2.55,6.11-3.29Z" transform="translate(-43.73 -12.51)"/><path class="cls-1" d="M184.75,220.54a14.67,14.67,0,0,0-3.35-2.87l1.29-.18a1.59,1.59,0,0,0-.51.85,11.39,11.39,0,0,1-.25,1.73,3,3,0,0,1-1.23-2.72c.14-.86.89-1.92,1.79-1.29,1.46.76,3.07,2.72,2.26,4.48Z" transform="translate(-43.73 -12.51)"/><path class="cls-1" d="M186.17,152.42c-1.22.27-2.2.07-3.34.25a3,3,0,0,0-1.13.69,1.64,1.64,0,0,1,0-1.8c1.16-1.71,3.88-1,4.45.86Z" transform="translate(-43.73 -12.51)"/><path class="cls-1" d="M117.49,173.56c-.81.94-2.16.89-2.68,2l0-.51c0,.64.18.87.82,1.3a1.62,1.62,0,0,1-2.54-.73,2.34,2.34,0,0,1,.61-1.92c1.09-1.14,2.59-.82,3.81-.17Z" transform="translate(-43.73 -12.51)"/><path class="cls-1" d="M205,153.36c.52-.19,1.37-.05,1.72-.22,0,0-.07,0-.08-.06a5.53,5.53,0,0,1,.67-.79l-.16.89c.08-.66-.39-.76-1-1.23a1.64,1.64,0,0,1,2.26-.12c.4.39.8,1,.48,1.49a5.07,5.07,0,0,1-.72,1c-1.14,1.24-2.66.42-3.2-.91Z" transform="translate(-43.73 -12.51)"/><path class="cls-1" d="M168.29,180.14a6.2,6.2,0,0,1,1,3l-.92-1a13.12,13.12,0,0,1,4.18.53,4,4,0,0,1-2,1.26c-.93.21-3.22.63-3.19-.82a6.3,6.3,0,0,1,1-3Z" transform="translate(-43.73 -12.51)"/><path class="cls-1" d="M181.93,165.57c.07-.3.17-.85-.13-.63-.14.17-.52-.1-.7-.16.07.06,0,0,0,0s-.06,0-.07,0,0,0-.06,0a2.07,2.07,0,0,1-.87.4.74.74,0,0,0-.49.43c-.61-.28-.36-1.3-.1-1.71a1.75,1.75,0,0,1,2.36-.88,2.19,2.19,0,0,1,1.23,1.66.92.92,0,0,1-1.14.93Z" transform="translate(-43.73 -12.51)"/><path class="cls-1" d="M164.06,206.91c-.89.52-1.86.26-2.49,1l.42-.74c0,1.65-.18,2.44.66,4-2.14.08-3-2.59-2.57-4.27.11-.67.86-.86,1.44-1a3.55,3.55,0,0,1,2.54,1Z" transform="translate(-43.73 -12.51)"/><path class="cls-1" d="M261,181.08c.79.88,1.27,1.6,2,2.45.22.28.51.59.86,1.07a2,2,0,0,1-1.55.34,2.32,2.32,0,0,1-1.27-3.86Z" transform="translate(-43.73 -12.51)"/><path class="cls-1" d="M210.63,168.39c-1.39-.55-2.3-1.31-3.81-1l.32-1.09a4.92,4.92,0,0,1,.19,1.67c-.65-.28-2.2-.92-1.45-1.7a2.75,2.75,0,0,1,4.75,2.17Z" transform="translate(-43.73 -12.51)"/><path class="cls-1" d="M213.68,154.3c-.63-.09-1-.4-1.36-.3,0,.05.07.06.08.06a7.19,7.19,0,0,1-1.77.24,1.8,1.8,0,0,1,1.41-2.2,1.53,1.53,0,0,1,1.64,2.2Z" transform="translate(-43.73 -12.51)"/><path class="cls-1" d="M176.29,220.07c-.44-.39-.51-1-1-1.27-.15-.09-.18,0-.19,0a3,3,0,0,1-.32.12s0,0,0-.06,0-.14,0-.14a2.41,2.41,0,0,0,0,1,3.91,3.91,0,0,0,.49.76c-1.58.61-3.06-1.6-2-2.94,1.9-1.84,4.53.2,2.95,2.47Z" transform="translate(-43.73 -12.51)"/><path class="cls-1" d="M248.73,165.69c-.63.49-.12.91,0,.79-.09-.16.27.2.3.21a3.64,3.64,0,0,1,.89,3.26c-.53,2.11-.83,2.08-1.57.1a16.17,16.17,0,0,0-1-2.77c-.47-1,.56-2.17,1.39-1.59Z" transform="translate(-43.73 -12.51)"/><path class="cls-1" d="M227.09,182.72c1.19-.65,2.48-1,3.47.18a1.32,1.32,0,0,1,.06,1.46,2.51,2.51,0,0,0-1.06-.24,2.34,2.34,0,0,1-2.47-1.4Z" transform="translate(-43.73 -12.51)"/><path class="cls-1" d="M220.5,170.74c-.39.13-1.33.5-1.19-.21a3.07,3.07,0,0,1,1.2-1.61c1.17-.86,3.37-.54,3.67,1.13.1.84-.77,1-1.32.69.15-.23.36-.45.35-.6s-.05,0-.09,0-.07.26-.13.32a6.94,6.94,0,0,0-2.86.39l-.18-.8a3.88,3.88,0,0,1,.55.69Z" transform="translate(-43.73 -12.51)"/><path class="cls-1" d="M254.14,173.09a7.27,7.27,0,0,1,.67,1.64l-.47-.63c2.34,0,5.5,1.9,5,4.63-1.76-1.67-3.61-2.22-5.67-3.55a.39.39,0,0,1-.17-.45,6.83,6.83,0,0,1,.67-1.64Z" transform="translate(-43.73 -12.51)"/><path class="cls-1" d="M173.46,167.92a3.17,3.17,0,0,1-1.31-.48l1.14.1a2.07,2.07,0,0,1-2.48.76c-.77-.31-1-.76-1.58-1.32a1.66,1.66,0,0,1,1.1-.51c.78-.11,1.15.07,1.9,0l.72-.17a.36.36,0,0,1,.42.26,3.34,3.34,0,0,1,.09,1.4Z" transform="translate(-43.73 -12.51)"/><path class="cls-1" d="M203.57,151.48c-.51-.23-1.09-.69-1.51-.41A11.46,11.46,0,0,0,201,152l.28-1c0,.15.05.23,0,.25.05.29.73.34,1.07.52a1.3,1.3,0,0,1,.77.68,1.83,1.83,0,0,0-.81.21,2.11,2.11,0,0,1-2.17,0c-.67-.54-1.18-1.43-.58-2.09a4.41,4.41,0,0,1,1-.8,1.88,1.88,0,0,1,3,1.72Z" transform="translate(-43.73 -12.51)"/><path class="cls-1" d="M134.89,177.79c-.28-.17-.74-.36-.68,0,.08.16-.13.24-.1.25s.08-.33-.09-.06-.29.7-.77.94c-.58-.53-1-.8-.87-1.66a1.55,1.55,0,0,1,1.38-1.14c.89-.17,2,.85,1.13,1.63Z" transform="translate(-43.73 -12.51)"/><path class="cls-1" d="M242.61,156.41a7.39,7.39,0,0,0-.16,2.57,4.91,4.91,0,0,1,0,1.58,3.27,3.27,0,0,1-.94,1.49,11.09,11.09,0,0,1-.74-1.74c-.9-1.43-.07-3.89,1.8-3.9Z" transform="translate(-43.73 -12.51)"/><path class="cls-1" d="M195.1,173.09c-.92.69-2.41.56-3.26,1.26l.22-1.28c.55,1,.62,1.8,1.63,2.37a1.79,1.79,0,0,1-2,0c-1.74-1.23-2.19-2.56.13-3.27a4.07,4.07,0,0,1,3.29.91Z" transform="translate(-43.73 -12.51)"/><path class="cls-1" d="M153.24,186c1.15-1.24,3.06-1.5,4,.07.43.72,1.15,1.72.32,2.36-1.35.93-2.67.34-3.89-.32.84-.63,2.07-.56,2.7-1.23l-.28,1.19c-.18-.3-.66-1.26-.84-1.46-.43-.36-1.42-.35-2-.61Z" transform="translate(-43.73 -12.51)"/><path class="cls-1" d="M217.21,214.43c1.19,1.54-.61,4.1-2.46,3.06a1.52,1.52,0,0,1-.85-1.23,2.67,2.67,0,0,1,1.9-2.77,6.78,6.78,0,0,0,0,2.56s0-.06,0-.09c-.12-.25-.15-.22-.16-.24h0c.13.08,0,0-.11.06l-.07,0c.81-.13,1.06-.54,1.68-1.38Z" transform="translate(-43.73 -12.51)"/><path class="cls-1" d="M232.5,171.21c1.75-1.2,3.57,1.45,2.11,2.82-1.44-.83-1.46-1.1-2.11-2.82Z" transform="translate(-43.73 -12.51)"/><path class="cls-1" d="M171.11,157.59c.57-1,2-1,2.92-.63s1.22.72,2.26,1.1c-.47,1.09-2,1.14-2.91.79a20,20,0,0,1-2.27-1.26Z" transform="translate(-43.73 -12.51)"/><path class="cls-1" d="M179.11,157.59a1.33,1.33,0,0,1,1.43-2.06c1.48.13,2.24,2.36.82,3.14a1.08,1.08,0,0,1-1.31-.38c.22-.19.88-.68.37-.68-.08,0-.12-.11-.16-.1s-.06,0-.08,0-.19-.1-.09-.3c-.09-.31-.7.34-1,.41Z" transform="translate(-43.73 -12.51)"/><path class="cls-1" d="M240.26,167.92c-.45,1-1.87.75-2.5.24s-.65-.92-1.26-1.65c.61-.78,1.83-.43,2.43,0s.57.82,1.33,1.38Z" transform="translate(-43.73 -12.51)"/><path class="cls-1" d="M185.93,152.89c.81,1.8-1.93,2.68-2.59.94a2.84,2.84,0,0,1,1.19-1c.25-.07.44.09,1.4.08Z" transform="translate(-43.73 -12.51)"/><path class="cls-1" d="M134.42,179.67a3.82,3.82,0,0,1-3.76.23,1.94,1.94,0,0,1,3.76-.23Z" transform="translate(-43.73 -12.51)"/><path class="cls-1" d="M128.31,221c.63-.56,1.12-.78,1.86-.42a1.21,1.21,0,0,1,.25,2.06,2.28,2.28,0,0,0-1.21-.31,2.3,2.3,0,0,1-.9-1.33Z" transform="translate(-43.73 -12.51)"/><path class="cls-1" d="M252.49,168.86a2.61,2.61,0,0,1,1.65,3.76,2.6,2.6,0,0,1-1.65-3.76Z" transform="translate(-43.73 -12.51)"/><path class="cls-1" d="M147.12,181.55a7.57,7.57,0,0,0,.93-2.24l.13.93-.21-.3c-.2-.51-.78-.45-1.32-.51a1.49,1.49,0,0,1,1.28-1.27c1-.13,2.3.76,2,1.79s-1.67,2.26-2.82,1.6Z" transform="translate(-43.73 -12.51)"/><path class="cls-1" d="M173.94,154.77c1.16,1.84-1.65,2.95-2.67,1.56-.06-.09,0-.2-.08-.31s-.27-.13-.55-.08c-.33-.67.54-1.2,1.11-1.11l.92.13c.17,0,.08.1.25.17s.53-.13,1-.36Z" transform="translate(-43.73 -12.51)"/></g></svg>